# xmcd
#
# Track frame offsets:
#	150
#	21747
#	39597
#
# Disc length: 855 seconds
#
# Revision: 1
# Processed by: cddbd v1.5.2PL0 Copyright (c) Steve Scherf et al.
# Submitted via: audiograbber 1.83.01
#
DISCID=23035503
DTITLE=K.A.I. - Valossa Ja Varjossa [CDS)
DYEAR=1996
DGENRE=Pop
TTITLE0=Valossa Ja Varjossa
TTITLE1=Mun Kaipuu
TTITLE2=Valossa Ja Varjossa (Sininen Versio)
EXTD=TR.
EXTT0=
EXTT1=
EXTT2=
PLAYORDER=
